<?xml version="1.0"?>
<svg xmlns="http://www.w3.org/2000/svg" height="150.21455" viewBox="0 0 781.24365 150.21455" width="781.24365">
  <g fill="none" fill-rule="evenodd" transform="translate(0 -.89272)">
    <path d="m695.23564 159.69578 69.76436 43.30422-38.29415 23.77c.046-.12508.0838-.25025.11245-.37486.81048-3.6209 1.41159-7.26961 1.9992-10.41782-.43564-2.9721-.67203-5.38192-1.14482-7.75466-1.41497-6.89888-5.80172-12.29934-10.6984-17.4032-.46941-.48815-1.71553-.64262-2.51589-.51286-1.67162.26879-3.11361.16374-3.93085-1.30686-1.50278-2.69097-3.80928-3.43863-6.98369-2.99992-1.20222.16375-2.91774-.1174-3.73161-.83107-1.81346-1.59728-3.50535-1.77956-5.59235-.73222-1.42172.71368-2.70161.52213-4.08619-.33057-.89027-.48901-1.93595-.68622-2.96503-.55921-4.1301.54685-7.01746 2.63844-8.41554 6.28097-.60034 1.54998-1.11097 3.12781-1.52979 4.72695-.58423 2.2677 5.88413.75693 6.22183 0 1.67163-3.57765 4.53061-1.66524 8.62356-.68587 3.56276.85271 6.96342 2.27079 10.42487 3.46643.36602.1372.68791.35727.93544.63953 2.64758 2.99991 4.84265 6.21918 5.46064 10.10578.38836 2.43453.4559 4.92468.76996 7.37774.60111 4.67134-.91179 8.68152-4.08282 12.3395-5.28504 6.10178-11.60683 10.54449-20.30604 11.6907-3.49859.46034-6.65949 1.62508-9.1416 4.20173-.86789.89905-2.50575 1.3841-3.88358 1.62199-3.05299.49291-5.97135 1.52666-8.59114 3.04317-.72606.42944-1.83035 1.32231-1.70878 1.75484.24315.87433 1.04013 1.90931 1.91477 2.28315 1.74891.69184 3.57886 1.19771 5.4539 1.50767 3.50873.66734 7.04785 1.28215 10.60047 1.73631.08.01.15995.0191.24001.0279l-36.15483 22.44204v-150.21456l34.38898 21.34598c-.78255.29169-1.53702.67951-2.26324 1.17244-1.52674 1.05125-2.96802 2.20254-4.31246 3.44481-2.82656 2.57047-5.5991 5.08842-9.21251 6.89578-3.99165 1.99582-6.46363 5.28615-6.92966 9.66398-.38498 3.62399-1.02661 7.22018-1.53992 10.83181-.27691 1.92786-.81048 3.87116-.72606 5.78974.19925 4.5663.89153 9.11714 1.01311 13.68035.10806 4.01636 1.81008 7.13367 5.24114 9.56511 1.5129 1.06897 3.13388 2.01745 4.60963 3.12658 1.68852 1.25743 3.40742 2.5334 4.85616 4.01637 1.51629 1.55402 3.22506 2.71876 5.36272 3.33666 5.3633 1.56365 11.15993 1.32927 16.35154-.66115 2.26599-.84344 4.34285-2.03599 5.40324-4.19864 1.40484-2.87324.61799-3.85571 0-6.99156-.78685-4.01327-7.85833-2.5334-7.44971-1.64362.2195.47579.23639 1.44898-.0743 1.64362-1.52304.94539-3.21155 1.9433-5.14658 1.2358-2.45722-.88174-4.84974-1.90753-7.16267-3.07097-3.58302-1.82899-5.85575-4.68678-6.53116-8.39419-.53019-2.88251-.71593-5.81754-1.05363-8.72786-.3377-5.88242 1.26301-11.01719 5.99422-15.21274.90474-.85165 1.59614-1.87318 2.02621-2.99373.9692-2.40364 2.72526-3.92368 5.3053-4.8289 2.4112-.84653 4.72108-1.92168 7.13903-2.74658 1.31725-.43242 1.41964-2.68623 2.81461-2.78903 1.16146-.0678 2.08326-1.20792 3.13165-1.687z" fill="#fff" opacity=".99" transform="translate(-644 -127)"/>
    <text style="font-weight:bold;font-size:96;font-family:Noto Sans;letter-spacing:0;word-spacing:0;fill:#000" x="148.10303" y="109.04478">
      <tspan fill="#fff" font-family="Noto Sans" font-size="96" font-weight="bold" x="148.10303" y="109.04478">HSReplay.net</tspan>
    </text>
  </g>
</svg>
