<?xml version="1.0" encoding="UTF-8" standalone="no"?>
<svg
   xmlns:dc="http://purl.org/dc/elements/1.1/"
   xmlns:cc="http://creativecommons.org/ns#"
   xmlns:rdf="http://www.w3.org/1999/02/22-rdf-syntax-ns#"
   xmlns:svg="http://www.w3.org/2000/svg"
   xmlns="http://www.w3.org/2000/svg"
   id="svg10"
   version="1.1"
   width="781.24365"
   viewBox="0 0 781.24365 150.21455"
   height="150.21455">
  <metadata
     id="metadata16">
    <rdf:RDF>
      <cc:Work
         rdf:about="">
        <dc:format>image/svg+xml</dc:format>
        <dc:type
           rdf:resource="http://purl.org/dc/dcmitype/StillImage" />
        <dc:title></dc:title>
      </cc:Work>
    </rdf:RDF>
  </metadata>
  <defs
     id="defs14" />
  <g
     id="g899">
    <path
       style="opacity:0.98999999;fill:#fff;fill-rule:evenodd"
       id="path2"
       d="M 51.23564,31.80306 121,75.10728 l -38.29415,23.77 c 0.046,-0.12508 0.0838,-0.25025 0.11245,-0.37486 0.81048,-3.6209 1.41159,-7.26961 1.9992,-10.41782 -0.43564,-2.9721 -0.67203,-5.38192 -1.14482,-7.75466 -1.41497,-6.89888 -5.80172,-12.29934 -10.6984,-17.4032 -0.46941,-0.48815 -1.71553,-0.64262 -2.51589,-0.51286 -1.67162,0.26879 -3.11361,0.16374 -3.93085,-1.30686 -1.50278,-2.69097 -3.80928,-3.43863 -6.98369,-2.99992 -1.20222,0.16375 -2.91774,-0.1174 -3.73161,-0.83107 -1.81346,-1.59728 -3.50535,-1.77956 -5.59235,-0.73222 -1.42172,0.71368 -2.70161,0.52213 -4.08619,-0.33057 -0.89027,-0.48901 -1.93595,-0.68622 -2.96503,-0.55921 -4.1301,0.54685 -7.01746,2.63844 -8.41554,6.28097 -0.60034,1.54998 -1.11097,3.12781 -1.52979,4.72695 -0.58423,2.2677 5.88413,0.75693 6.22183,0 1.67163,-3.57765 4.53061,-1.66524 8.62356,-0.68587 3.56276,0.85271 6.96342,2.27079 10.42487,3.46643 0.36602,0.1372 0.68791,0.35727 0.93544,0.63953 2.64758,2.99991 4.84265,6.21918 5.46064,10.10578 0.38836,2.43453 0.4559,4.92468 0.76996,7.37774 0.60111,4.67134 -0.91179,8.68152 -4.08282,12.3395 -5.28504,6.10178 -11.60683,10.54449 -20.30604,11.6907 -3.49859,0.46034 -6.65949,1.62508 -9.1416,4.20173 -0.86789,0.89905 -2.50575,1.3841 -3.88358,1.62199 -3.05299,0.49291 -5.97135,1.52666 -8.59114,3.04317 -0.72606,0.42944 -1.83035,1.32231 -1.70878,1.75484 0.24315,0.87433 1.04013,1.90931 1.91477,2.28315 1.74891,0.69184 3.57886,1.19771 5.4539,1.50767 3.50873,0.66734 7.04785,1.28215 10.60047,1.73631 0.08,0.01 0.15995,0.0191 0.24001,0.0279 L 0,150.21456 V 0 l 34.38898,21.34598 c -0.78255,0.29169 -1.53702,0.67951 -2.26324,1.17244 -1.52674,1.05125 -2.96802,2.20254 -4.31246,3.44481 -2.82656,2.57047 -5.5991,5.08842 -9.21251,6.89578 -3.99165,1.99582 -6.46363,5.28615 -6.92966,9.66398 -0.38498,3.62399 -1.02661,7.22018 -1.53992,10.83181 -0.27691,1.92786 -0.81048,3.87116 -0.72606,5.78974 0.19925,4.5663 0.89153,9.11714 1.01311,13.68035 0.10806,4.01636 1.81008,7.13367 5.24114,9.56511 1.5129,1.06897 3.13388,2.01745 4.60963,3.12658 1.68852,1.25743 3.40742,2.5334 4.85616,4.01637 1.51629,1.55402 3.22506,2.71876 5.36272,3.33666 5.3633,1.56365 11.15993,1.32927 16.35154,-0.66115 2.26599,-0.84344 4.34285,-2.03599 5.40324,-4.19864 1.40484,-2.87324 0.61799,-3.85571 0,-6.99156 -0.78685,-4.01327 -7.85833,-2.5334 -7.44971,-1.64362 0.2195,0.47579 0.23639,1.44898 -0.0743,1.64362 -1.52304,0.94539 -3.21155,1.9433 -5.14658,1.2358 -2.45722,-0.88174 -4.84974,-1.90753 -7.16267,-3.07097 -3.58302,-1.82899 -5.85575,-4.68678 -6.53116,-8.39419 -0.53019,-2.88251 -0.71593,-5.81754 -1.05363,-8.72786 -0.3377,-5.88242 1.26301,-11.01719 5.99422,-15.21274 0.90474,-0.85165 1.59614,-1.87318 2.02621,-2.99373 0.9692,-2.40364 2.72526,-3.92368 5.3053,-4.8289 2.4112,-0.84653 4.72108,-1.92168 7.13903,-2.74658 1.31725,-0.43242 1.41964,-2.68623 2.81461,-2.78903 1.16146,-0.0678 2.08326,-1.20792 3.13165,-1.687 z" />
    <g
       aria-label="HSReplay.net"
       style="font-weight:bold;font-size:96px;font-family:'Noto Sans';letter-spacing:0;word-spacing:0;fill:#fff;fill-rule:evenodd"
       id="text6">
      <path
         d="m 212.90303,108.15205 h -14.496 V 78.584046 h -27.168 v 29.568004 h -14.496 V 39.608046 h 14.496 v 26.88 h 27.168 v -26.88 h 14.496 z"
         style="font-weight:bold;font-size:96px;font-family:'Noto Sans';fill:#fff"
         id="path860" />
      <path
         d="m 270.59897,89.144046 q 0,9.12 -6.624,14.592004 -6.528,5.376 -18.624,5.376 -10.848,0 -19.392,-4.128 V 91.448046 q 4.896,2.112 10.08,3.936 5.28,1.728 10.464,1.728 5.376,0 7.584,-2.016 2.304,-2.112 2.304,-5.28 0,-2.592 -1.824,-4.416 -1.728,-1.824 -4.704,-3.36 -2.976,-1.632 -6.816,-3.456 -2.4,-1.152 -5.184,-2.688 -2.784,-1.632 -5.376,-3.936 -2.496,-2.4 -4.128,-5.76 -1.632,-3.36 -1.632,-8.064 0,-9.216 6.24,-14.304 6.24,-5.184 16.992,-5.184 5.376,0 10.176,1.248 4.896,1.248 10.176,3.552 l -4.704,11.328 q -4.704,-1.92 -8.448,-2.976 -3.744,-1.056 -7.68,-1.056 -4.128,0 -6.336,1.92 -2.208,1.92 -2.208,4.992 0,3.648 3.264,5.76 3.264,2.112 9.696,5.184 5.28,2.496 8.928,5.184 3.744,2.688 5.76,6.336 2.016,3.648 2.016,9.024 z"
         style="font-weight:bold;font-size:96px;font-family:'Noto Sans';fill:#fff"
         id="path862" />
      <path
         d="m 303.04684,39.608046 q 14.016,0 20.64,5.088 6.72,5.088 6.72,15.456 0,4.704 -1.824,8.256 -1.728,3.456 -4.704,5.952 -2.88,2.4 -6.24,3.936 l 20.16,29.856004 h -16.128 l -16.32,-26.304004 h -7.776 v 26.304004 h -14.496 V 39.608046 Z m -1.056,11.904 h -4.416 v 18.528 h 4.704 q 7.2,0 10.272,-2.4 3.168,-2.4 3.168,-7.104 0,-4.896 -3.36,-6.912 -3.264,-2.112 -10.368,-2.112 z"
         style="font-weight:bold;font-size:96px;font-family:'Noto Sans';fill:#fff"
         id="path864" />
      <path
         d="m 366.88683,54.776046 q 10.848,0 17.184,6.24 6.336,6.144 6.336,17.568 v 6.912 h -33.792 q 0.192,6.048 3.552,9.504 3.456,3.456 9.504,3.456 5.088,0 9.216,-0.96 4.128,-1.056 8.544,-3.168 v 11.040004 q -3.84,1.92 -8.16,2.784 -4.224,0.96 -10.272,0.96 -7.872,0 -13.92,-2.88 -6.048,-2.976 -9.504,-8.928004 -3.456,-5.952 -3.456,-14.976 0,-9.216 3.072,-15.264 3.168,-6.144 8.736,-9.216 5.568,-3.072 12.96,-3.072 z m 0.096,10.176 q -4.128,0 -6.912,2.688 -2.688,2.688 -3.168,8.352 h 20.064 q -0.096,-4.8 -2.496,-7.872 -2.4,-3.168 -7.488,-3.168 z"
         style="font-weight:bold;font-size:96px;font-family:'Noto Sans';fill:#fff"
         id="path866" />
      <path
         d="m 431.20679,54.776046 q 8.832,0 14.304,6.912 5.472,6.816 5.472,20.16 0,13.344 -5.664,20.352004 -5.664,6.912 -14.496,6.912 -5.664,0 -9.024,-2.016 -3.36,-2.112 -5.472,-4.704 h -0.768 q 0.768,4.032 0.768,7.68 v 21.12 h -14.304 V 55.736046 h 11.616 l 2.016,6.816 h 0.672 q 2.112,-3.168 5.664,-5.472 3.552,-2.304 9.216,-2.304 z m -4.608,11.424 q -5.568,0 -7.872,3.456 -2.208,3.456 -2.4,10.56 v 1.536 q 0,7.584 2.208,11.712 2.304,4.032 8.256,4.032 4.896,0 7.2,-4.032 2.4,-4.128 2.4,-11.808 0,-15.456 -9.792,-15.456 z"
         style="font-weight:bold;font-size:96px;font-family:'Noto Sans';fill:#fff"
         id="path868" />
      <path
         d="m 477.09473,108.15205 h -14.304 V 35.192046 h 14.304 z"
         style="font-weight:bold;font-size:96px;font-family:'Noto Sans';fill:#fff"
         id="path870" />
      <path
         d="m 513.57458,54.680046 q 10.56,0 16.128,4.608 5.664,4.512 5.664,13.92 v 34.944004 h -9.984 l -2.784,-7.104 h -0.384 q -3.36,4.224 -7.104,6.144 -3.744,1.92 -10.272,1.92 -7.008,0 -11.616,-4.032 -4.608,-4.128 -4.608,-12.576004 0,-8.352 5.856,-12.288 5.856,-4.032 17.568,-4.416 l 9.12,-0.288 v -2.304 q 0,-4.128 -2.208,-6.048 -2.112,-1.92 -5.952,-1.92 -3.84,0 -7.488,1.152 -3.648,1.056 -7.296,2.688 l -4.704,-9.696 q 4.224,-2.208 9.312,-3.456 5.184,-1.248 10.752,-1.248 z m 7.584,29.184 -5.568,0.192 q -6.912,0.192 -9.6,2.496 -2.688,2.304 -2.688,6.048 0,3.264 1.92,4.704 1.92,1.344 4.992,1.344 4.608,0 7.776,-2.688 3.168,-2.784 3.168,-7.776 z"
         style="font-weight:bold;font-size:96px;font-family:'Noto Sans';fill:#fff"
         id="path872" />
      <path
         d="m 542.56641,55.736046 h 15.648 l 9.888,29.472 q 0.768,2.112 1.152,4.416 0.384,2.208 0.576,4.704 h 0.288 q 0.288,-2.496 0.768,-4.704 0.576,-2.304 1.248,-4.416 l 9.696,-29.472 h 15.36 l -22.176,59.136004 q -2.976,8.16 -8.736,12.192 -5.664,4.128 -13.152,4.128 -2.4,0 -4.224,-0.288 -1.728,-0.192 -3.072,-0.48 v -11.328 q 1.056,0.192 2.496,0.384 1.536,0.192 3.168,0.192 4.512,0 7.104,-2.784 2.688,-2.688 3.936,-6.528 l 0.864,-2.592 z"
         style="font-weight:bold;font-size:96px;font-family:'Noto Sans';fill:#fff"
         id="path874" />
      <path
         d="m 598.82216,101.43205 q 0,-4.416004 2.4,-6.144004 2.4,-1.824 5.856,-1.824 3.36,0 5.76,1.824 2.4,1.728 2.4,6.144004 0,4.224 -2.4,6.144 -2.4,1.824 -5.76,1.824 -3.456,0 -5.856,-1.824 -2.4,-1.92 -2.4,-6.144 z"
         style="font-weight:bold;font-size:96px;font-family:'Noto Sans';fill:#fff"
         id="path876" />
      <path
         d="m 657.95814,54.776046 q 8.448,0 13.536,4.608 5.088,4.512 5.088,14.592 v 34.176004 h -14.304 V 77.528046 q 0,-5.664 -2.016,-8.448 -2.016,-2.88 -6.432,-2.88 -6.528,0 -8.928,4.512 -2.4,4.416 -2.4,12.768 v 24.672004 h -14.304 V 55.736046 h 10.944 l 1.92,6.72 h 0.768 q 2.496,-4.032 6.816,-5.856 4.416,-1.824 9.312,-1.824 z"
         style="font-weight:bold;font-size:96px;font-family:'Noto Sans';fill:#fff"
         id="path878" />
      <path
         d="m 712.8701,54.776046 q 10.848,0 17.184,6.24 6.336,6.144 6.336,17.568 v 6.912 h -33.792 q 0.192,6.048 3.552,9.504 3.456,3.456 9.504,3.456 5.088,0 9.216,-0.96 4.128,-1.056 8.544,-3.168 v 11.040004 q -3.84,1.92 -8.16,2.784 -4.224,0.96 -10.272,0.96 -7.872,0 -13.92,-2.88 -6.048,-2.976 -9.504,-8.928004 -3.456,-5.952 -3.456,-14.976 0,-9.216 3.072,-15.264 3.168,-6.144 8.736,-9.216 5.568,-3.072 12.96,-3.072 z m 0.096,10.176 q -4.128,0 -6.912,2.688 -2.688,2.688 -3.168,8.352 h 20.064 q -0.096,-4.8 -2.496,-7.872 -2.4,-3.168 -7.488,-3.168 z"
         style="font-weight:bold;font-size:96px;font-family:'Noto Sans';fill:#fff"
         id="path880" />
      <path
         d="m 770.08607,97.688046 q 2.4,0 4.608,-0.48 2.208,-0.48 4.416,-1.152 v 10.656004 q -2.304,0.96 -5.76,1.632 -3.36,0.768 -7.392,0.768 -4.704,0 -8.448,-1.536 -3.648,-1.536 -5.856,-5.28 -2.112,-3.840004 -2.112,-10.560004 v -25.248 h -6.816 v -6.048 l 7.872,-4.8 4.128,-11.04 h 9.12 v 11.136 h 14.688 v 10.752 h -14.688 v 25.248 q 0,2.976 1.728,4.512 1.728,1.44 4.512,1.44 z"
         style="font-weight:bold;font-size:96px;font-family:'Noto Sans';fill:#fff"
         id="path882" />
    </g>
  </g>
</svg>
