<?xml version="1.0"?>
<svg xmlns="http://www.w3.org/2000/svg" height="152" viewBox="0 0 121 152" width="121">
  <path d="m695.235643 159.695778 69.764357 43.304222-38.294154 23.769996c.045969-.125078.08385-.250244.112452-.374852.810486-3.620904 1.411596-7.269613 1.999198-10.417822-.435636-2.972106-.672028-5.381923-1.144811-7.754665-1.414973-6.898872-5.801726-12.299332-10.698409-17.4032-.469406-.488142-1.715528-.642617-2.515883-.512858-1.671626.268787-3.113615.163744-3.930854-1.306862-1.502776-2.690962-3.809283-3.438623-6.983684-2.999912-1.202221.163743-2.917748-.117402-3.731611-.831078-1.813461-1.597276-3.50535-1.779557-5.59235-.732214-1.421727.713677-2.701619.522127-4.086198-.330577-.890265-.489003-1.935951-.686219-2.965027-.559201-4.130099.546843-7.017454 2.63844-8.415542 6.28097-.600332 1.549973-1.11097 3.127809-1.529791 4.726948-.584225 2.267699 5.884132.756929 6.221834 0 1.671627-3.577651 4.530608-1.665245 8.62356-.685871 3.562759.852704 6.963422 2.270788 10.42487 3.466428.366019.137199.68791.357266.935436.639528 2.647586 2.999913 4.842651 6.21918 5.460646 10.105782.388358 2.434532.455898 4.924676.769962 7.377745.60111 4.671336-.911797 8.681518-4.082821 12.339496-5.285042 6.101778-11.606829 10.544491-20.306041 11.690699-3.498596.460337-6.65949 1.625081-9.141602 4.201731-.867895.899047-2.505751 1.3841-3.883576 1.621992-3.052998.49291-5.971356 1.526654-8.591147 3.043165-.72606.429442-1.830347 1.32231-1.708774 1.754841.243146.874331 1.040123 1.909316 1.914772 2.283146 1.748909.691846 3.578853 1.197718 5.453893 1.50768 3.508727.667334 7.047847 1.282146 10.600475 1.736304.079948.009825.159951.019113.240005.027866l-36.154828 22.442071v-150.214552l34.388982 21.345973c-.782551.291696-1.537026.679517-2.263239 1.172447-1.526743 1.051245-2.96802 2.202541-4.312458 3.444802-2.826569 2.57047-5.599105 5.08842-9.21252 6.895782-3.991641 1.995822-6.463622 5.286148-6.929651 9.663981-.384981 3.623994-1.026615 7.220181-1.539923 10.831816-.276916 1.927853-.810485 3.871154-.72606 5.789739.199245 4.566293.891534 9.117138 1.013107 13.680342.108065 4.01636 1.810085 7.133674 5.24114 9.565117 1.512907 1.06897 3.133878 2.017449 4.609637 3.126582 1.688511 1.25743 3.407416 2.533397 4.856159 4.016361 1.516284 1.554023 3.225057 2.718767 5.362713 3.336669 5.363308 1.563649 11.159934 1.32927 16.351546-.661155 2.265983-.843436 4.342852-2.035986 5.403237-4.198641 1.404842-2.873243.617994-3.855708-.000001-6.991559-.786846-4.013271-7.858332-2.533395-7.449712-1.643617.219507.475784.236392 1.448979-.074294 1.643619-1.523038.945389-3.211549 1.9433-5.146584 1.235803-2.457223-.881748-4.849742-1.907533-7.162666-3.070971-3.583021-1.828989-5.855758-4.686784-6.531163-8.394194-.530192-2.882511-.715929-5.817544-1.053631-8.727861-.337702-5.882423 1.263007-11.017186 5.994216-15.212738.90475-.851653 1.596142-1.873186 2.026214-2.993733.969206-2.403638 2.725258-3.923676 5.305304-4.828902 2.411194-.846525 4.721078-1.921674 7.139027-2.746573 1.317251-.432421 1.419641-2.686231 2.814609-2.789033 1.161463-.067837 2.083264-1.207916 3.131654-1.687002z" fill-rule="evenodd" transform="translate(-644 -127)"/>
</svg>
