<svg xmlns="http://www.w3.org/2000/svg" viewBox="0 0 3382 784"><title>hearthsim-logo-white</title><path d="M439.04,94.438l-10.753,334.08L437.5,628.2H329.983L339.2,441.574l-1.536-40.7H131.071l-.768,27.648L139.52,628.2H32l9.216-186.624L32,113.639l109.056-19.2-7.68,225.024H335.359l-5.376-205.824Z" fill="#fff"/><path d="M644.254,549.862q22.266,0,46.848-11.521t38.4-23.04l13.824-11.52,35.327,43.008q-7.686,13.068-23.808,29.952a236.934,236.934,0,0,1-32.64,28.8q-16.525,11.917-43.776,21.5a168.856,168.856,0,0,1-56.448,9.6q-62.208,0-101.376-47.232T481.438,467.687q0-93.69,54.528-164.353t127.488-70.655q56.051,0,87.168,31.487t31.1,88.32q0,33.8-11.52,76.8l-15.36,16.128-192,17.664Q575.9,549.875,644.254,549.862Zm0-238.08q-33.8,0-56.832,27.265t-26.88,69.5L691.1,392.423a233.719,233.719,0,0,0,2.3-29.185Q693.405,311.794,644.254,311.782Z" fill="#fff"/><path d="M851.229,599.4q-28.8-28.8-28.8-77.568t44.544-84.479q44.533-35.713,108.288-35.712h52.225V388.582q0-37.619-15.36-51.455t-57.6-13.824q-17.676,0-41.856,7.3t-54.144,22.656l-22.272-60.673q33.012-23.039,80.256-41.472t77.952-18.432q120.564,0,120.576,116.735V499.942q0,43.02,26.88,96l-81.408,34.56q-19.206-36.864-28.416-66.048Q989.847,628.21,925.341,628.2,880.017,628.2,851.229,599.4ZM957.6,549.862q30.709,0,69.889-31.488V466.918q-40.717-9.215-66.048-9.216-48.385,0-48.385,43.008,0,22.285,12.288,35.712Q937.618,549.869,957.6,549.862Z" fill="#fff"/><path d="M1200.28,257.255l92.929-19.969q6.911,59.149,9.216,112.128,69.876-108.287,131.328-108.287L1425.3,360.935q-44.55,0-70.272,8.063-25.739,8.064-52.607,31.872v27.648L1310.873,609l-102.912,19.2,9.216-186.624Q1214.1,338.669,1200.28,257.255Z" fill="#fff"/><path d="M1512.079,256.486V172.774l103.68-19.968-9.983,103.68H1698.7l-8.448,62.977H1602.7l-3.84,160.512q0,36.107,6.912,48,6.911,11.915,25.344,11.9t49.152-8.447l4.607,54.527q-50.688,42.246-89.088,42.24t-62.976-28.032q-24.589-28.025-24.576-73.344l4.607-86.016-.768-121.344h-52.992l8.448-62.977Z" fill="#fff"/><path d="M1969.8,363.238q-9.215-17.657-43.008-17.664t-76.8,26.88v56.064L1858.443,609l-103.68,19.2,9.216-186.624-9.216-388.607,105.216-19.2L1850,232.679v89.855a280.648,280.648,0,0,1,26.111-29.952q14.581-14.58,45.313-33.023a125.447,125.447,0,0,1,65.664-18.432q34.938,0,58.752,27.264,23.8,27.27,23.808,74.112l-4.607,86.016,8.447,184.319-103.68,19.2,9.216-198.144Q1979.02,380.9,1969.8,363.238Z" fill="#fff"/><path d="M2624.88,124.774q0-25.723,19.968-46.08,19.963-20.339,46.08-20.352,26.1,0,39.937,14.208t13.823,42.624q0,28.421-19.584,48.768t-45.312,20.353q-25.74,0-40.32-16.9Q2624.875,150.515,2624.88,124.774Zm108.288,112.512-9.216,191.232L2732.4,609l-102.912,19.2,9.216-186.624-8.448-185.088Z" fill="#b90303"/><path d="M3031.143,363.238q-9.215-17.657-43.008-17.664t-76.8,26.88v56.064L2919.783,609l-102.912,19.2,9.216-186.624q-3.078-102.905-16.9-184.319l92.929-19.969q5.363,44.55,7.68,86.784a310.645,310.645,0,0,1,26.112-30.336q14.58-14.977,46.08-33.792,31.481-18.81,63.743-18.815t54.528,20.735q22.266,20.736,28.416,56.832,63.738-77.562,129.024-77.567,40.7,0,64.512,27.264,23.8,27.27,23.808,74.112l-4.607,86.016,8.447,184.319-103.68,19.2,9.216-198.144q0-52.992-9.216-70.656t-42.24-17.664q-33.029,0-74.5,25.345l-3.071,57.6,8.447,184.319-103.68,19.2,9.216-198.144Q3040.358,380.9,3031.143,363.238Z" fill="#b90303"/><path d="M2513.952,349.838c46.832,52.826,70.977,124.983,44.936,219.366-2.958,10.716-16.442,19.358-22.048,31.846-6.568,14.632-5.018,34.722-9.8,47.359-3.008,7.955-16.238,14.558-22.048,19.6-28.1,24.379-63.72,69.65-108.644,75.94-13.349,1.868-28.541-4.5-42.462-.817-35.7,9.447-126.406,1.284-146.225-28.277-12.221-18.229-80.948-61.972-59.19-86.3,2.981-3.334,39.375,2.693,41.609,3.216,13.283,3.122,26.395,11.589,39.532,14.724,12.276,2.927,27.949-2.24,40.606-2.471,46.936-.856,94.908.446,122.176-15.545,31.952-18.735,48.526-56.156,60.336-90.3,7.705-22.271-.365-70.308-1.632-93.9-.9-16.782-26.293-63.1-37.562-68.592-97.789-47.651-105.95-17.717-119.4,20.475-5.984,16.983-39.565-15.052-34.16-38.212,12.032-51.563,25.915-66.374,61.7-74.05,14.527-3.117,17.495,8.261,27.926,9.976,7.235,1.192,21.236-8.563,30.193-8.566,9.3,0,14.39,13.055,25.313,15.514,12.4,2.794,25.972-2.679,36.745,0,12.185,3.031,19.093,25.625,27.874,28.241,12.1,3.6,14.8-2.154,22.69-1.8C2499.077,327.556,2508.348,343.516,2513.952,349.838Z" fill="#b90303"/><path d="M2138.1,390.026c3.413,52.963,62.3,65.146,89.45,101.66,31.191,41.946,144.342,33.309,163.272-14.473,13.079-33.01,10.01-72.858-7.721-82.988-14.775-8.445-44.123-9.774-49.687,1.517-5.649,11.465,17.908,26.394,12.248,37.561-1.855,3.66-24.17,12.186-28.579,10.616-85.287-30.4-90.112-59.923-91.849-140.4s36.069-80.9,47.806-114.83,38.693-28.664,70.442-47.283c27.1-15.893,54.467,7.827,89.1,6.891,12.576-.34,34.534-12.455,50.1-4.748,43.106,21.341,46.234,10.7,83.57-.854,22.322-6.906-48.426-48.315-88.68-88.844-24.924-25.1-102.305-25.634-137.786-16.248-13.832,3.66-28.93-2.669-42.2-.811-44.642,6.251-68.953,61.2-103.055,75.465-24.573,10.282-49.914,42.607-49.5,68.778.959,61.445-20,84.066-13.032,115.145S2137.009,373.039,2138.1,390.026Z" fill="#b90303"/></svg>