<svg xmlns="http://www.w3.org/2000/svg" viewBox="0 0 500 784"><title>hearthsim-icon</title><path d="M42.446,632.84c3-3.358,39.658,2.712,41.908,3.239,13.378,3.144,26.584,11.672,39.817,14.83,12.365,2.948,28.15-2.256,40.9-2.489,47.274-.862,95.59.45,123.054-15.657C320.3,613.894,337,576.2,348.893,541.814c7.761-22.431-.368-70.814-1.644-94.579-.909-16.9-26.482-63.555-37.832-69.085-98.492-47.994-106.712-17.844-120.263,20.622-6.027,17.105-39.849-15.16-34.405-38.487,12.118-51.933,26.1-66.851,62.141-74.582,14.632-3.139,17.62,8.321,28.127,10.048,7.287,1.2,21.389-8.624,30.41-8.628,9.365,0,14.493,13.149,25.5,15.626,12.488,2.814,26.159-2.7,37.009,0C350.2,305.8,357.16,328.558,366,331.193c12.184,3.626,14.9-2.17,22.853-1.814,6.712.3,16.05,16.376,21.694,22.744C457.72,405.328,482.038,478,455.81,573.065c-2.979,10.793-16.56,19.5-22.207,32.075-6.615,14.738-5.054,34.971-9.867,47.7-3.03,8.012-16.354,14.662-22.207,19.739-28.3,24.554-64.178,70.15-109.425,76.486-13.445,1.882-28.746-4.531-42.767-.822-35.959,9.515-127.315,1.293-147.276-28.48C89.753,701.4,20.533,657.345,42.446,632.84" fill="#b90303"/><path d="M32,392.6c3.438,53.344,62.744,65.614,90.092,102.391,31.415,42.247,145.379,33.549,164.446-14.577,13.173-33.247,10.082-73.382-7.776-83.584-14.881-8.505-44.44-9.844-50.044,1.528-5.689,11.547,18.037,26.584,12.336,37.831-1.869,3.686-24.344,12.274-28.784,10.692-85.9-30.614-90.76-60.354-92.509-141.41s36.328-81.479,48.15-115.656,38.971-28.87,70.948-47.623c27.3-16.007,54.859,7.884,89.741,6.94,12.667-.343,34.782-12.544,50.458-4.782,43.416,21.494,46.566,10.775,84.171-.861,22.483-6.956-48.774-48.663-89.317-89.483-25.1-25.275-103.041-25.818-138.776-16.364-13.931,3.686-29.138-2.689-42.5-.816-44.962,6.3-69.448,61.635-103.8,76.007C64.091,123.188,38.568,155.746,38.979,182.1" fill="#b90303"/></svg>