<?xml version="1.0" encoding="UTF-8" standalone="no"?>
<svg
   xmlns:dc="http://purl.org/dc/elements/1.1/"
   xmlns:cc="http://creativecommons.org/ns#"
   xmlns:rdf="http://www.w3.org/1999/02/22-rdf-syntax-ns#"
   xmlns:svg="http://www.w3.org/2000/svg"
   xmlns="http://www.w3.org/2000/svg"
   xmlns:sodipodi="http://sodipodi.sourceforge.net/DTD/sodipodi-0.dtd"
   xmlns:inkscape="http://www.inkscape.org/namespaces/inkscape"
   width="781.24365"
   height="150.21455"
   viewBox="0 0 781.24365 150.21455"
   version="1.1"
   id="svg11"
   sodipodi:docname="hsreplaynet-black.svg"
   inkscape:version="0.92.2 5c3e80d, 2017-08-06"
   inkscape:export-filename="/home/benedict/Dokumente/hsreplaynet-brand/hsreplaynet.svg.png"
   inkscape:export-xdpi="200.03387"
   inkscape:export-ydpi="200.03387">
  <metadata
     id="metadata15">
    <rdf:RDF>
      <cc:Work
         rdf:about="">
        <dc:format>image/svg+xml</dc:format>
        <dc:type
           rdf:resource="http://purl.org/dc/dcmitype/StillImage" />
        <dc:title>logo-hsr</dc:title>
      </cc:Work>
    </rdf:RDF>
  </metadata>
  <sodipodi:namedview
     pagecolor="#ffffff"
     bordercolor="#666666"
     borderopacity="1"
     objecttolerance="10"
     gridtolerance="10"
     guidetolerance="10"
     inkscape:pageopacity="1"
     inkscape:pageshadow="2"
     inkscape:window-width="1920"
     inkscape:window-height="1016"
     id="namedview13"
     showgrid="false"
     inkscape:zoom="1.0978763"
     inkscape:cx="405.03609"
     inkscape:cy="-13.730027"
     inkscape:window-x="0"
     inkscape:window-y="27"
     inkscape:window-maximized="1"
     inkscape:current-layer="Page-1"
     units="in"
     fit-margin-top="0"
     fit-margin-left="0"
     fit-margin-right="0"
     fit-margin-bottom="0" />
  <!-- Generator: Sketch 3.7.2 (28276) - http://www.bohemiancoding.com/sketch -->
  <title
     id="title2">logo-hsr</title>
  <desc
     id="desc4">Created with Sketch.</desc>
  <defs
     id="defs6" />
  <g
     id="Page-1"
     style="fill:none;fill-rule:evenodd;stroke:none;stroke-width:1"
     transform="translate(0,-0.89272)">
    <g
       id="Desktop-HD"
       transform="translate(-644,-127)"
       style="opacity:0.98999999;fill:#000000;fill-opacity:1">
      <path
         d="M 695.23564,159.69578 765,203 726.70585,226.77 c 0.046,-0.12508 0.0838,-0.25025 0.11245,-0.37486 0.81048,-3.6209 1.41159,-7.26961 1.9992,-10.41782 -0.43564,-2.9721 -0.67203,-5.38192 -1.14482,-7.75466 -1.41497,-6.89888 -5.80172,-12.29934 -10.6984,-17.4032 -0.46941,-0.48815 -1.71553,-0.64262 -2.51589,-0.51286 -1.67162,0.26879 -3.11361,0.16374 -3.93085,-1.30686 -1.50278,-2.69097 -3.80928,-3.43863 -6.98369,-2.99992 -1.20222,0.16375 -2.91774,-0.1174 -3.73161,-0.83107 -1.81346,-1.59728 -3.50535,-1.77956 -5.59235,-0.73222 -1.42172,0.71368 -2.70161,0.52213 -4.08619,-0.33057 -0.89027,-0.48901 -1.93595,-0.68622 -2.96503,-0.55921 -4.1301,0.54685 -7.01746,2.63844 -8.41554,6.28097 -0.60034,1.54998 -1.11097,3.12781 -1.52979,4.72695 -0.58423,2.2677 5.88413,0.75693 6.22183,0 1.67163,-3.57765 4.53061,-1.66524 8.62356,-0.68587 3.56276,0.85271 6.96342,2.27079 10.42487,3.46643 0.36602,0.1372 0.68791,0.35727 0.93544,0.63953 2.64758,2.99991 4.84265,6.21918 5.46064,10.10578 0.38836,2.43453 0.4559,4.92468 0.76996,7.37774 0.60111,4.67134 -0.91179,8.68152 -4.08282,12.3395 -5.28504,6.10178 -11.60683,10.54449 -20.30604,11.6907 -3.49859,0.46034 -6.65949,1.62508 -9.1416,4.20173 -0.86789,0.89905 -2.50575,1.3841 -3.88358,1.62199 -3.05299,0.49291 -5.97135,1.52666 -8.59114,3.04317 -0.72606,0.42944 -1.83035,1.32231 -1.70878,1.75484 0.24315,0.87433 1.04013,1.90931 1.91477,2.28315 1.74891,0.69184 3.57886,1.19771 5.4539,1.50767 3.50873,0.66734 7.04785,1.28215 10.60047,1.73631 0.08,0.01 0.15995,0.0191 0.24001,0.0279 L 644,278.10728 V 127.89272 l 34.38898,21.34598 c -0.78255,0.29169 -1.53702,0.67951 -2.26324,1.17244 -1.52674,1.05125 -2.96802,2.20254 -4.31246,3.44481 -2.82656,2.57047 -5.5991,5.08842 -9.21251,6.89578 -3.99165,1.99582 -6.46363,5.28615 -6.92966,9.66398 -0.38498,3.62399 -1.02661,7.22018 -1.53992,10.83181 -0.27691,1.92786 -0.81048,3.87116 -0.72606,5.78974 0.19925,4.5663 0.89153,9.11714 1.01311,13.68035 0.10806,4.01636 1.81008,7.13367 5.24114,9.56511 1.5129,1.06897 3.13388,2.01745 4.60963,3.12658 1.68852,1.25743 3.40742,2.5334 4.85616,4.01637 1.51629,1.55402 3.22506,2.71876 5.36272,3.33666 5.3633,1.56365 11.15993,1.32927 16.35154,-0.66115 2.26599,-0.84344 4.34285,-2.03599 5.40324,-4.19864 1.40484,-2.87324 0.61799,-3.85571 0,-6.99156 -0.78685,-4.01327 -7.85833,-2.5334 -7.44971,-1.64362 0.2195,0.47579 0.23639,1.44898 -0.0743,1.64362 -1.52304,0.94539 -3.21155,1.9433 -5.14658,1.2358 -2.45722,-0.88174 -4.84974,-1.90753 -7.16267,-3.07097 -3.58302,-1.82899 -5.85575,-4.68678 -6.53116,-8.39419 -0.53019,-2.88251 -0.71593,-5.81754 -1.05363,-8.72786 -0.3377,-5.88242 1.26301,-11.01719 5.99422,-15.21274 0.90474,-0.85165 1.59614,-1.87318 2.02621,-2.99373 0.9692,-2.40364 2.72526,-3.92368 5.3053,-4.8289 2.4112,-0.84653 4.72108,-1.92168 7.13903,-2.74658 1.31725,-0.43242 1.41964,-2.68623 2.81461,-2.78903 1.16146,-0.0678 2.08326,-1.20792 3.13165,-1.687 z"
         id="logo-hsr"
         style="fill:#000000;fill-opacity:1"
         inkscape:connector-curvature="0" />
    </g>
    <text
       xml:space="preserve"
       style="font-style:normal;font-variant:normal;font-weight:bold;font-stretch:normal;font-size:96px;line-height:125%;font-family:'Noto Sans';-inkscape-font-specification:'Noto Sans, Bold';font-variant-ligatures:normal;font-variant-caps:normal;font-variant-numeric:normal;font-feature-settings:normal;text-align:start;letter-spacing:0px;word-spacing:0px;writing-mode:lr-tb;text-anchor:start;fill:#000000;fill-opacity:1;stroke:none;stroke-width:1px;stroke-linecap:butt;stroke-linejoin:miter;stroke-opacity:1;"
       x="148.10303"
       y="109.04478"
       id="text840"><tspan
         sodipodi:role="line"
         id="tspan838"
         x="148.10303"
         y="109.04478"
         style="font-style:normal;font-variant:normal;font-weight:bold;font-stretch:normal;font-size:96px;font-family:'Noto Sans';-inkscape-font-specification:'Noto Sans, Bold';font-variant-ligatures:normal;font-variant-caps:normal;font-variant-numeric:normal;font-feature-settings:normal;text-align:start;writing-mode:lr-tb;text-anchor:start;fill:#000000;fill-opacity:1;">HSReplay.net</tspan></text>
  </g>
</svg>
