<svg width="275" height="45" fill="none" xmlns="http://www.w3.org/2000/svg"><path d="M13.951 10.144L23.776 0 33.6 10.144h-5.903v18.06c0 3.178-.703 5.493-2.11 6.946-1.378 1.422-3.605 2.133-6.683 2.133H8.793c-3.078 0-5.32-.711-6.727-2.133C.69 33.697 0 31.382 0 28.204V5.054h7.914v23.15c0 1.816.879 2.724 2.637 2.724h6.595c1.758 0 2.638-.908 2.638-2.724v-18.06H13.95z" fill="#262321"/><path d="M45.503 18.899c-1.554 0-3.312.302-5.276.908v17.022h-7.694V12.771h6.815l.44 2.27c1.377-.939 2.784-1.62 4.22-2.043 1.465-.454 2.696-.681 3.693-.681h1.978c1.993 0 3.59.62 4.792 1.86 1.202 1.242 1.803 2.89 1.803 4.949v17.703H48.58V20.488c0-.454-.146-.833-.44-1.135a1.467 1.467 0 00-1.099-.454h-1.538zM68.14 37.283c2.725 0 5.51-.151 8.352-.454v-5.901h-5.715c-.44 0-.806-.151-1.1-.454-.292-.302-.439-.68-.439-1.135V18.9h5.496V12.77h-5.496V7.323h-6.814l-.88 5.448h-2.637v6.128h2.638v11.575c0 2.058.6 3.707 1.802 4.948 1.202 1.24 2.799 1.861 4.792 1.861z" fill="#262321"/><path fill-rule="evenodd" clip-rule="evenodd" d="M79.829 13.225c5.364-.606 10.2-.908 14.508-.908 1.993 0 3.59.62 4.792 1.86 1.202 1.242 1.803 2.89 1.803 4.949v17.703h-6.815l-.44-2.27c-1.377.939-2.798 1.635-4.264 2.089-1.436.423-2.652.635-3.649.635h-1.539c-1.993 0-3.59-.62-4.792-1.861-1.201-1.24-1.802-2.89-1.802-4.948v-2.043c0-2.058.6-3.707 1.802-4.948 1.202-1.24 2.8-1.86 4.792-1.86h9.013v-1.816c0-.454-.147-.833-.44-1.135a1.467 1.467 0 00-1.099-.454c-1.905 0-4.015.09-6.33.272-2.287.182-4.133.318-5.54.409v-5.675zm8.133 17.703c1.554 0 3.312-.303 5.276-.908v-2.723h-6.375c-.44 0-.806.15-1.099.453-.293.303-.44.681-.44 1.135v.454c0 .454.147.833.44 1.135.293.303.66.454 1.1.454h1.098zM112.57 44.546V36.83h9.013c2.198 0 3.913-.635 5.144-1.906 1.26-1.302 1.89-3.087 1.89-5.357v-10.44c0-2.058-.601-3.707-1.802-4.948-1.202-1.241-2.8-1.861-4.793-1.861h-1.978c-.996 0-2.227.227-3.693.68-1.436.424-2.843 1.105-4.22 2.043l-.44-2.27h-6.815v31.776h7.694zm0-24.74c1.964-.605 3.722-.907 5.276-.907h1.539c.439 0 .806.151 1.099.454.293.302.439.68.439 1.134v8.398c0 1.21-.586 1.816-1.758 1.816h-6.595V19.807zM140.262 36.83v7.716h-7.693V12.771h6.814l.44 2.27c1.377-.939 2.784-1.62 4.22-2.043 1.466-.454 2.697-.681 3.693-.681h1.979c1.993 0 3.59.62 4.792 1.86 1.201 1.242 1.802 2.89 1.802 4.949v10.44c0 2.27-.63 4.055-1.89 5.357-1.231 1.27-2.946 1.906-5.144 1.906h-9.013zm5.276-17.931c-1.553 0-3.312.302-5.276.908V30.7h6.595c1.172 0 1.759-.605 1.759-1.816v-8.398c0-.453-.147-.832-.44-1.134a1.467 1.467 0 00-1.099-.454h-1.539zM166.416 37.283c4.601 0 9.73-.303 15.387-.908v-5.674c-5.598.454-9.848.681-12.749.681-.44 0-.806-.151-1.099-.454-.294-.303-.44-.68-.44-1.135v-1.816h15.167V19.58c0-2.27-.63-4.04-1.89-5.311-1.231-1.302-2.946-1.952-5.144-1.952h-8.793c-2.198 0-3.927.65-5.187 1.952-1.231 1.27-1.847 3.04-1.847 5.31v10.895c0 2.058.601 3.707 1.803 4.948 1.201 1.24 2.799 1.861 4.792 1.861zm1.099-17.476c0-1.21.586-1.816 1.758-1.816h3.957c1.173 0 1.759.605 1.759 1.816v2.496h-7.474v-2.496zM203.109 36.83l-.44-2.27c-1.378.938-2.799 1.634-4.265 2.088-1.436.423-2.652.635-3.649.635h-1.978c-1.993 0-3.59-.62-4.792-1.861-1.202-1.24-1.803-2.89-1.803-4.948v-10.44c0-2.27.616-4.04 1.847-5.311 1.26-1.302 2.989-1.952 5.188-1.952h9.012V5.054h7.694v31.775h-6.814zm-6.155-6.129c1.553 0 3.312-.303 5.275-.908V18.9h-6.594c-1.173 0-1.759.605-1.759 1.816v8.397c0 .454.147.833.44 1.135.293.303.659.454 1.099.454h1.539z" fill="#262321"/><path d="M221.348 30.02h-7.913v6.81h7.913v-6.81z" fill="#262321"/><path fill-rule="evenodd" clip-rule="evenodd" d="M240.043 35.013c-2.843.606-5.334.908-7.473.908h-1.539c-1.993 0-3.591-.62-4.792-1.86-1.202-1.242-1.803-2.89-1.803-4.949v-9.078c0-2.27.616-4.04 1.847-5.311 1.26-1.302 2.989-1.952 5.187-1.952h16.267v25.42c0 2.058-.601 3.707-1.802 4.948-1.202 1.24-2.799 1.861-4.792 1.861-4.602 0-9.731-.303-15.388-.908v-5.901c5.598.454 9.848.68 12.75.68.439 0 .806-.15 1.099-.453.293-.303.439-.681.439-1.135v-2.27zm-5.275-5.22c1.846 0 3.605-.151 5.275-.454V18.9h-6.154c-1.173 0-1.759.605-1.759 1.816v7.49c0 .453.146.832.44 1.134.293.303.659.454 1.099.454h1.099zM259.832 35.921c2.14 0 4.631-.302 7.474-.908v2.27c0 .454-.146.832-.439 1.135-.293.303-.66.454-1.099.454-2.902 0-7.152-.227-12.75-.681v5.901c5.657.605 10.786.908 15.387.908 1.993 0 3.591-.62 4.792-1.861 1.202-1.24 1.803-2.89 1.803-4.948v-25.42h-16.267c-2.198 0-3.927.65-5.187 1.951-1.231 1.271-1.847 3.042-1.847 5.312v9.078c0 2.058.601 3.707 1.803 4.948 1.201 1.24 2.799 1.861 4.792 1.861h1.538zm7.474-6.582c-1.67.303-3.429.454-5.275.454h-1.099a1.47 1.47 0 01-1.1-.454c-.293-.302-.439-.68-.439-1.135v-7.49c0-1.21.586-1.815 1.758-1.815h6.155v10.44z" fill="#262321"/></svg>